<svg width="48" height="36" viewBox="0 0 48 36" fill="none" xmlns="http://www.w3.org/2000/svg">
<path d="M34.4727 28.2687C34.1244 28.2687 33.7066 28.1318 33.3583 27.9266C32.4528 27.3109 32.2439 26.1478 32.8706 25.2583C34.8211 22.3847 35.0999 19.5113 35.0999 18.0062C35.0999 14.517 33.7072 11.9853 32.8017 10.754C32.175 9.86446 32.4534 8.70139 33.2894 8.08576C34.195 7.47011 35.3789 7.74357 36.0055 8.56491C37.1199 10.1384 38.9305 13.491 38.9305 18.0066C38.9305 19.9223 38.5128 23.6853 36.0055 27.4484C35.7267 27.9953 35.1 28.2687 34.4729 28.2687L34.4727 28.2687ZM42.621 35.1788C46.3121 30.1158 47.5659 24.9162 47.9836 21.4269C48.1231 20.4008 47.357 19.443 46.2426 19.3061C45.1981 19.1691 44.2232 19.9217 44.0837 21.0165C43.7354 24.027 42.621 28.5427 39.4177 32.9895C38.791 33.8791 38.9999 35.0422 39.9054 35.6578C40.2537 35.9313 40.6715 36 41.0198 36C41.5765 36 42.2032 35.6578 42.621 35.1787L42.621 35.1788ZM46.173 15.4746C47.2175 15.3376 47.9836 14.3115 47.7747 13.285C46.8692 7.60632 44.432 3.36457 42.5515 0.833003C41.9248 -0.05657 40.671 -0.261784 39.8354 0.35385C38.9299 0.969496 38.721 2.20124 39.3477 3.02213C40.9493 5.21173 43.0387 8.90602 43.8742 13.8321C44.0136 14.7899 44.8492 15.4742 45.8242 15.4742C45.9641 15.5429 46.1031 15.5429 46.173 15.4747L46.173 15.4746ZM26.464 35.384C27.9268 34.5632 28.8318 33.058 28.8318 31.4158V4.5962C28.8318 2.95406 27.9962 1.38059 26.464 0.627996C24.9319 -0.12462 23.1908 -0.124621 21.7979 0.764964L11.3515 7.33328C10.7943 7.67546 10.1676 7.88068 9.54086 7.81243L7.24264 7.81195C5.36215 7.81195 3.48216 8.49632 2.15881 9.79581C0.766074 11.0959 0 12.8745 0 14.7902V21.3585C0 23.2742 0.835568 24.9846 2.15881 26.2845C3.48216 27.5846 5.36265 28.2684 7.24264 28.2684L9.61038 28.2001C10.2371 28.2001 10.8637 28.3371 11.421 28.6793C12.3265 29.2267 13.5104 29.0215 14.1371 28.1319C14.6943 27.2423 14.4854 26.0793 13.5799 25.4636C12.396 24.711 11.0032 24.3006 9.54055 24.3688L7.17281 24.4371C6.19783 24.4371 5.50125 24.1636 4.87458 23.5475C4.24791 22.9319 3.89961 22.1793 3.89961 21.3579V14.8584C3.89961 13.9688 4.24792 13.2162 4.87458 12.6006C5.50126 11.985 6.26732 11.6428 7.17281 11.711L9.54055 11.7793C10.9333 11.7793 12.326 11.4371 13.5799 10.6845L24.0263 4.11617C24.3047 3.91095 24.5835 4.04792 24.723 4.11617C24.8624 4.18441 25.0713 4.32138 25.0713 4.73181V31.6198C25.0713 31.962 24.8624 32.099 24.723 32.1672C24.5835 32.2355 24.3746 32.3042 23.9569 32.099L19.778 29.6374C18.8725 29.09 17.6192 29.4322 17.1315 30.3218C16.5742 31.2114 16.9226 32.4426 17.8281 32.9218L21.798 35.1796C22.5641 35.6587 23.3997 35.8639 24.2358 35.8639C25.0014 36.0004 25.7674 35.7952 26.4641 35.3843L26.464 35.384Z" fill="#43626C"/>
</svg>
