<svg width="28" height="28" viewBox="0 0 28 28" fill="none" xmlns="http://www.w3.org/2000/svg">
<path fill-rule="evenodd" clip-rule="evenodd" d="M11.8057 12.9943C15.2686 12.9943 18.7124 13.8362 21.7676 15.421C22.3162 15.7067 22.5295 16.3848 22.2476 16.9295C22.0457 17.3143 21.6571 17.939 21.2495 17.939C21.0743 17.939 20.899 17.9009 20.7352 17.8133C17.9581 16.3695 14.9562 15.6381 11.8057 15.6381C10.0762 15.6381 8.35048 15.8667 6.68952 16.32C6.09143 16.4838 5.47429 16.1295 5.31048 15.5352C5.14667 14.941 5.49714 13.92 6.09524 13.7562C7.95048 13.2495 9.87428 12.9943 11.8057 12.9943ZM13.6893 27.9966C13.7926 27.9989 13.8962 28 14 28C21.732 28 28 21.732 28 14C28 13.8962 27.9989 13.7926 27.9966 13.6893C27.8314 6.10256 21.631 0.0028308 14.0053 9.84816e-07C14.0035 3.28291e-07 14.0018 0 14 0C6.26801 0 0 6.26801 0 14C0 14.0014 2.10128e-07 14.0028 6.30353e-07 14.0042C0.00226464 21.6305 6.10221 27.8314 13.6893 27.9966ZM5.42857 8.16381C7.50857 7.64952 9.64952 7.38667 11.8019 7.38667C15.9314 7.38667 19.8895 8.31238 23.5657 10.1524C24.1981 10.4648 24.4571 11.2381 24.141 11.8705C23.9162 12.32 23.4629 12.7162 22.9905 12.7162C22.7962 12.7162 22.6019 12.6705 22.419 12.579C19.1048 10.9257 15.5314 10.0876 11.8019 10.0876C9.85905 10.0876 7.92 10.3238 6.04571 10.7886C5.35619 10.9562 4.66286 10.5371 4.49143 9.85143C4.32381 9.16571 4.73905 8.33524 5.42857 8.16381ZM6.71238 19.0019C8.35429 18.4952 10.0686 18.2362 11.8019 18.2362C14.6971 18.2362 17.5657 18.9714 20.0914 20.3619C20.5562 20.6171 20.7238 21.741 20.4686 22.2057C20.2971 22.5257 19.9657 22.7048 19.6267 22.7048C19.4667 22.7048 19.3105 22.6667 19.1619 22.5867C16.9181 21.3524 14.3733 20.6971 11.8019 20.6971C10.2629 20.6971 8.73905 20.9257 7.28 21.379C6.77333 21.5352 6.23238 21.2533 6.07619 20.7429C5.92 20.2362 6.2019 19.1581 6.71238 19.0019Z" fill="#7798A4"/>
</svg>
