<svg width="32" height="32" viewBox="0 0 32 32" fill="none" xmlns="http://www.w3.org/2000/svg">
<path d="M24.514 12.295C24.514 12.295 24.345 11.017 23.824 10.454C23.163 9.71599 22.423 9.71199 22.083 9.66999C19.651 9.48199 16.004 9.48199 16.004 9.48199H15.996C15.996 9.48199 12.349 9.48199 9.91701 9.66999C9.57801 9.71199 8.83801 9.71599 8.17601 10.454C7.65601 11.017 7.48601 12.295 7.48601 12.295C7.48601 12.295 7.31201 13.795 7.31201 15.294V16.7C7.31201 18.201 7.48601 19.7 7.48601 19.7C7.48601 19.7 7.65501 20.978 8.17601 21.539C8.83801 22.277 9.70501 22.254 10.092 22.331C11.482 22.474 16 22.518 16 22.518C16 22.518 19.651 22.512 22.083 22.325C22.422 22.281 23.163 22.277 23.824 21.54C24.344 20.978 24.514 19.701 24.514 19.701C24.514 19.701 24.688 18.201 24.688 16.701V15.295C24.688 13.795 24.514 12.295 24.514 12.295ZM13.83 19.259V12.741L19.262 16L13.83 19.259Z" fill="#7798A4"/>
<path d="M16 1C24.271 1 31 7.729 31 16C31 24.271 24.271 31 16 31C7.729 31 1 24.271 1 16C1 7.729 7.729 1 16 1ZM16 0C7.164 0 0 7.164 0 16C0 24.836 7.164 32 16 32C24.836 32 32 24.837 32 16C32 7.163 24.836 0 16 0Z" fill="#7798A4"/>
</svg>
